  0
SECTION
  2
HEADER
  9
$ACADVER
  1
AC1009
  9
$INSBASE
 10
0.0
 20
0.0
 30
0.0
  9
$EXTMIN
 10
0.0
 20
0.0
 30
0.0
  9
$EXTMAX
 10
0.0
 20
0.0
 30
0.0
  0
ENDSEC
  0
SECTION
  2
TABLES
  0
TABLE
  2
VPORT
 70
0
  0
ENDTAB
  0
TABLE
  2
LTYPE
 70
1
  0
LTYPE
  2
CONTINUOUS
 70
0
  3
Solid line
 72
65
 73
0
 40
0.0
  0
ENDTAB
  0
TABLE
  2
LAYER
 70
1
  0
LAYER
  2
0
 70
64
 62
7
  6
continuous
  0
ENDTAB
  0
TABLE
  2
STYLE
 70
1
  0
STYLE
  2
STANDARD
 70
0
 40
0
 41
1.0
 50
0.0
 71
0
 42
1
 3
ARIAL.TTF
 4

  0
ENDTAB
  0
TABLE
  2
VIEW
 70
0
  0
ENDTAB
  0
ENDSEC
  0
SECTION
  2
BLOCKS
  0
BLOCK
  8
0
  2
FACEFEAT
 70
0
 10
0.0
 20
0.0
 30
0.0
  3
FACEFEAT
  0
LINE
  8
0
 62
0
 10
174.529978
 20
-33.529955
 30
0.0
 11
175.042361
 21
-33.545956
 31
0.0
  0
LINE
  8
0
 62
0
 10
165.964025
 20
-33.498911
 30
0.0
 11
174.529978
 21
-33.52995500000001
 31
0.0
  0
LINE
  8
0
 62
0
 10
175.042361
 20
-33.545956
 30
0.0
 11
175.551739
 21
-33.60362500000006
 31
0.0
  0
LINE
  8
0
 62
0
 10
175.551739
 20
-33.603625
 30
0.0
 11
176.05473099999998
 21
-33.70258000000013
 31
0.0
  0
LINE
  8
0
 62
0
 10
176.054731
 20
-33.70258
 30
0.0
 11
176.54799399999996
 21
-33.842164000000054
 31
0.0
  0
LINE
  8
0
 62
0
 10
176.547994
 20
-33.842164
 30
0.0
 11
177.02825299999992
 21
-34.02145000000025
 31
0.0
  0
LINE
  8
0
 62
0
 10
177.028253
 20
-34.02145
 30
0.0
 11
177.49231799999995
 21
-34.23924700000013
 31
0.0
  0
LINE
  8
0
 62
0
 10
177.492318
 20
-34.239247
 30
0.0
 11
177.93710800000005
 21
-34.49410799999989
 31
0.0
  0
LINE
  8
0
 62
0
 10
177.937108
 20
-34.494108
 30
0.0
 11
178.35966799999997
 21
-34.784341000000026
 31
0.0
  0
LINE
  8
0
 62
0
 10
178.359668
 20
-34.784341
 30
0.0
 11
178.75719200000006
 21
-35.108018999999935
 31
0.0
  0
LINE
  8
0
 62
0
 10
178.757192
 20
-35.108019
 30
0.0
 11
179.12703900000008
 21
-35.462990999999924
 31
0.0
  0
LINE
  8
0
 62
0
 10
179.127039
 20
-35.462991
 30
0.0
 11
179.46675399999992
 21
-35.846900000000076
 31
0.0
  0
LINE
  8
0
 62
0
 10
179.466754
 20
-35.8469
 30
0.0
 11
179.77407999999994
 21
-36.257196000000036
 31
0.0
  0
LINE
  8
0
 62
0
 10
179.77408
 20
-36.257196
 30
0.0
 11
179.87
 21
-36.260231
 31
0.0
  0
LINE
  8
0
 62
0
 10
179.87
 20
-36.260231
 30
0.0
 11
226.150087
 21
-36.260231
 31
0.0
  0
LINE
  8
0
 62
0
 10
226.150087
 20
-36.260231
 30
0.0
 11
226.606574
 21
-36.279222999999995
 31
0.0
  0
LINE
  8
0
 62
0
 10
226.606574
 20
-36.279223
 30
0.0
 11
227.05968000000001
 21
-36.3378489999998
 31
0.0
  0
LINE
  8
0
 62
0
 10
227.05968
 20
-36.337849
 30
0.0
 11
227.50597299999998
 21
-36.435648000000185
 31
0.0
  0
LINE
  8
0
 62
0
 10
227.505973
 20
-36.435648
 30
0.0
 11
227.94207300000002
 21
-36.57187699999996
 31
0.0
  0
LINE
  8
0
 62
0
 10
227.942073
 20
-36.571877
 30
0.0
 11
228.36467699999997
 21
-36.74550700000004
 31
0.0
  0
LINE
  8
0
 62
0
 10
228.364677
 20
-36.745507
 30
0.0
 11
228.7705860000001
 21
-36.95522199999985
 31
0.0
  0
LINE
  8
0
 62
0
 10
228.770586
 20
-36.955222
 30
0.0
 11
229.15672400000003
 21
-37.19943399999995
 31
0.0
  0
LINE
  8
0
 62
0
 10
229.156724
 20
-37.199434
 30
0.0
 11
229.52016699999982
 21
-37.47629300000021
 31
0.0
  0
LINE
  8
0
 62
0
 10
229.520167
 20
-37.476293
 30
0.0
 11
229.85816299999988
 21
-37.783702000000105
 31
0.0
  0
LINE
  8
0
 62
0
 10
229.858163
 20
-37.783702
 30
0.0
 11
230.168152
 21
-38.11933399999999
 31
0.0
  0
LINE
  8
0
 62
0
 10
230.168152
 20
-38.119334
 30
0.0
 11
230.44778699999992
 21
-38.48064600000006
 31
0.0
  0
LINE
  8
0
 62
0
 10
230.447787
 20
-38.480646
 30
0.0
 11
230.69494900000015
 21
-38.86490199999991
 31
0.0
  0
LINE
  8
0
 62
0
 10
230.694949
 20
-38.864902
 30
0.0
 11
230.90776700000015
 21
-39.26919199999992
 31
0.0
  0
LINE
  8
0
 62
0
 10
230.907767
 20
-39.269192
 30
0.0
 11
231.08462800000004
 21
-39.69045399999999
 31
0.0
  0
LINE
  8
0
 62
0
 10
231.084628
 20
-39.690454
 30
0.0
 11
231.22419500000018
 21
-40.12549799999995
 31
0.0
  0
LINE
  8
0
 62
0
 10
231.224195
 20
-40.125498
 30
0.0
 11
231.32540899999995
 21
-40.57102800000001
 31
0.0
  0
LINE
  8
0
 62
0
 10
231.325409
 20
-40.571028
 30
0.0
 11
231.3875030000002
 21
-41.02367199999997
 31
0.0
  0
LINE
  8
0
 62
0
 10
231.387503
 20
-41.023672
 30
0.0
 11
231.410009
 21
-41.48
 31
0.0
  0
LINE
  8
0
 62
0
 10
231.410009
 20
-41.48
 30
0.0
 11
231.42
 21
-86.79282600000002
 31
0.0
  0
LINE
  8
0
 62
0
 10
231.42
 20
-86.792826
 30
0.0
 11
231.398092
 21
-87.219625
 31
0.0
  0
LINE
  8
0
 62
0
 10
231.398092
 20
-87.219625
 30
0.0
 11
231.33448699999985
 21
-87.64222799999999
 31
0.0
  0
LINE
  8
0
 62
0
 10
231.334487
 20
-87.642228
 30
0.0
 11
231.22981499999992
 21
-88.05657299999997
 31
0.0
  0
LINE
  8
0
 62
0
 10
231.229815
 20
-88.056573
 30
0.0
 11
231.085081
 21
-88.458681
 31
0.0
  0
LINE
  8
0
 62
0
 10
231.085081
 20
-88.458681
 30
0.0
 11
230.90167599999992
 21
-88.84468799999996
 31
0.0
  0
LINE
  8
0
 62
0
 10
230.901676
 20
-88.844688
 30
0.0
 11
230.6813619999999
 21
-89.21088399999992
 31
0.0
  0
LINE
  8
0
 62
0
 10
230.681362
 20
-89.210884
 30
0.0
 11
230.42625499999997
 21
-89.55375299999997
 31
0.0
  0
LINE
  8
0
 62
0
 10
230.426255
 20
-89.553753
 30
0.0
 11
230.13880700000007
 21
-89.87000000000005
 31
0.0
  0
LINE
  8
0
 62
0
 10
230.138807
 20
-89.87
 30
0.0
 11
219.61037999999684
 21
-100.41832999999686
 31
0.0
  0
LINE
  8
0
 62
0
 10
219.61038
 20
-100.41833
 30
0.0
 11
219.350181
 21
-100.75414199999999
 31
0.0
  0
LINE
  8
0
 62
0
 10
219.350181
 20
-100.754142
 30
0.0
 11
219.1205760000002
 21
-101.11157200000012
 31
0.0
  0
LINE
  8
0
 62
0
 10
219.120576
 20
-101.111572
 30
0.0
 11
218.9233350000001
 21
-101.48783000000005
 31
0.0
  0
LINE
  8
0
 62
0
 10
218.923335
 20
-101.48783
 30
0.0
 11
218.759991
 21
-101.879995
 31
0.0
  0
LINE
  8
0
 62
0
 10
218.759991
 20
-101.879995
 30
0.0
 11
218.6318120000001
 21
-102.28501900000005
 31
0.0
  0
LINE
  8
0
 62
0
 10
218.631812
 20
-102.285019
 30
0.0
 11
218.53979399999983
 21
-102.69975599999995
 31
0.0
  0
LINE
  8
0
 62
0
 10
218.539794
 20
-102.699756
 30
0.0
 11
218.4846520000001
 21
-103.12098500000002
 31
0.0
  0
LINE
  8
0
 62
0
 10
218.484652
 20
-103.120985
 30
0.0
 11
218.466814
 21
-103.545433
 31
0.0
  0
LINE
  8
0
 62
0
 10
218.466814
 20
-103.545433
 30
0.0
 11
218.467828
 21
-126.046851
 31
0.0
  0
LINE
  8
0
 62
0
 10
218.467828
 20
-126.046851
 30
0.0
 11
218.46674
 21
-126.636456
 31
0.0
  0
LINE
  8
0
 62
0
 10
218.46674
 20
-126.636456
 30
0.0
 11
218.423654
 21
-127.224485
 31
0.0
  0
LINE
  8
0
 62
0
 10
218.423654
 20
-127.224485
 30
0.0
 11
218.3387540000002
 21
-127.80794500000003
 31
0.0
  0
LINE
  8
0
 62
0
 10
218.338754
 20
-127.807945
 30
0.0
 11
218.21247299999973
 21
-128.38386799999995
 31
0.0
  0
LINE
  8
0
 62
0
 10
218.212473
 20
-128.383868
 30
0.0
 11
218.045454
 21
-128.949322
 31
0.0
  0
LINE
  8
0
 62
0
 10
218.045454
 20
-128.949322
 30
0.0
 11
217.83854500000007
 21
-129.50143000000003
 31
0.0
  0
LINE
  8
0
 62
0
 10
217.838545
 20
-129.50143
 30
0.0
 11
217.59280099999978
 21
-130.0373809999999
 31
0.0
  0
LINE
  8
0
 62
0
 10
217.592801
 20
-130.037381
 30
0.0
 11
217.30947200000014
 21
-130.5544480000001
 31
0.0
  0
LINE
  8
0
 62
0
 10
217.309472
 20
-130.554448
 30
0.0
 11
216.99000000000004
 21
-131.05000000000004
 31
0.0
  0
LINE
  8
0
 62
0
 10
216.99
 20
-131.05
 30
0.0
 11
214.38491899999988
 21
-135.58333399999995
 31
0.0
  0
LINE
  8
0
 62
0
 10
214.384919
 20
-135.583334
 30
0.0
 11
199.916053
 21
-160.692705
 31
0.0
  0
LINE
  8
0
 62
0
 10
199.916053
 20
-160.692705
 30
0.0
 11
198.81605300000024
 21
-162.39270500000015
 31
0.0
  0
LINE
  8
0
 62
0
 10
198.816053
 20
-162.392705
 30
0.0
 11
198.54123300000023
 21
-162.82324100000014
 31
0.0
  0
LINE
  8
0
 62
0
 10
198.541233
 20
-162.823241
 30
0.0
 11
198.23388599999987
 21
-163.2311899999999
 31
0.0
  0
LINE
  8
0
 62
0
 10
198.233886
 20
-163.23119
 30
0.0
 11
197.8958010000001
 21
-163.61405200000007
 31
0.0
  0
LINE
  8
0
 62
0
 10
197.895801
 20
-163.614052
 30
0.0
 11
197.52902
 21
-163.969517
 31
0.0
  0
LINE
  8
0
 62
0
 10
197.52902
 20
-163.969517
 30
0.0
 11
197.13575400000008
 21
-164.2954410000001
 31
0.0
  0
LINE
  8
0
 62
0
 10
197.135754
 20
-164.295441
 30
0.0
 11
196.71837599999998
 21
-164.58985699999997
 31
0.0
  0
LINE
  8
0
 62
0
 10
196.718376
 20
-164.589857
 30
0.0
 11
196.27940600000014
 21
-164.85098700000026
 31
0.0
  0
LINE
  8
0
 62
0
 10
196.279406
 20
-164.850987
 30
0.0
 11
195.82149099999992
 21
-165.07725799999983
 31
0.0
  0
LINE
  8
0
 62
0
 10
195.821491
 20
-165.077258
 30
0.0
 11
195.34739400000007
 21
-165.26730300000017
 31
0.0
  0
LINE
  8
0
 62
0
 10
195.347394
 20
-165.267303
 30
0.0
 11
194.859977
 21
-165.41997599999996
 31
0.0
  0
LINE
  8
0
 62
0
 10
194.859977
 20
-165.419976
 30
0.0
 11
194.36217999999994
 21
-165.53435599999975
 31
0.0
  0
LINE
  8
0
 62
0
 10
194.36218
 20
-165.534356
 30
0.0
 11
193.857007
 21
-165.609751
 31
0.0
  0
LINE
  8
0
 62
0
 10
193.857007
 20
-165.609751
 30
0.0
 11
193.347506
 21
-165.645709
 31
0.0
  0
LINE
  8
0
 62
0
 10
193.347506
 20
-165.645709
 30
0.0
 11
192.836751
 21
-165.642011
 31
0.0
  0
LINE
  8
0
 62
0
 10
192.836751
 20
-165.642011
 30
0.0
 11
192.327824
 21
-165.59867999999997
 31
0.0
  0
LINE
  8
0
 62
0
 10
192.327824
 20
-165.59868
 30
0.0
 11
191.82379499999996
 21
-165.51597700000013
 31
0.0
  0
LINE
  8
0
 62
0
 10
191.823795
 20
-165.515977
 30
0.0
 11
191.327707
 21
-165.394401
 31
0.0
  0
LINE
  8
0
 62
0
 10
191.327707
 20
-165.394401
 30
0.0
 11
190.8425509999999
 21
-165.23468700000026
 31
0.0
  0
LINE
  8
0
 62
0
 10
190.842551
 20
-165.234687
 30
0.0
 11
190.37125699999996
 21
-165.03779600000013
 31
0.0
  0
LINE
  8
0
 62
0
 10
190.371257
 20
-165.037796
 30
0.0
 11
189.916666
 21
-164.80491899999998
 31
0.0
  0
LINE
  8
0
 62
0
 10
189.916666
 20
-164.804919
 30
0.0
 11
151.7439600000104
 21
-142.757244999982
 31
0.0
  0
LINE
  8
0
 62
0
 10
151.74396
 20
-142.757245
 30
0.0
 11
151.32155299999994
 21
-142.56855400000015
 31
0.0
  0
LINE
  8
0
 62
0
 10
151.321553
 20
-142.568554
 30
0.0
 11
150.883631
 21
-142.419372
 31
0.0
  0
LINE
  8
0
 62
0
 10
150.883631
 20
-142.419372
 30
0.0
 11
150.43387399999997
 21
-142.31097200000008
 31
0.0
  0
LINE
  8
0
 62
0
 10
150.433874
 20
-142.310972
 30
0.0
 11
149.97607399999998
 21
-142.2442660000002
 31
0.0
  0
LINE
  8
0
 62
0
 10
149.976074
 20
-142.244266
 30
0.0
 11
149.514085
 21
-142.219818
 31
0.0
  0
LINE
  8
0
 62
0
 10
149.514085
 20
-142.219818
 30
0.0
 11
138.561896
 21
-142.248292
 31
0.0
  0
LINE
  8
0
 62
0
 10
138.561896
 20
-142.248292
 30
0.0
 11
138.279002
 21
-142.225927
 31
0.0
  0
LINE
  8
0
 62
0
 10
138.279002
 20
-142.225927
 30
0.0
 11
138.00313900000003
 21
-142.15937399999993
 31
0.0
  0
LINE
  8
0
 62
0
 10
138.003139
 20
-142.159374
 30
0.0
 11
137.74116399999997
 21
-142.0502930000001
 31
0.0
  0
LINE
  8
0
 62
0
 10
137.741164
 20
-142.050293
 30
0.0
 11
137.499588
 21
-141.90139400000004
 31
0.0
  0
LINE
  8
0
 62
0
 10
137.499588
 20
-141.901394
 30
0.0
 11
137.28441599999996
 21
-141.71637900000002
 31
0.0
  0
LINE
  8
0
 62
0
 10
137.284416
 20
-141.716379
 30
0.0
 11
134.7100000000004
 21
-139.52999999999952
 31
0.0
  0
LINE
  8
0
 62
0
 10
134.71
 20
-139.53
 30
0.0
 11
134.494822
 21
-139.344993
 31
0.0
  0
LINE
  8
0
 62
0
 10
134.494822
 20
-139.344993
 30
0.0
 11
134.25324699999993
 21
-139.1960950000001
 31
0.0
  0
LINE
  8
0
 62
0
 10
134.253247
 20
-139.196095
 30
0.0
 11
133.991274
 21
-139.08701299999998
 31
0.0
  0
LINE
  8
0
 62
0
 10
133.991274
 20
-139.087013
 30
0.0
 11
133.71541299999998
 21
-139.02045900000013
 31
0.0
  0
LINE
  8
0
 62
0
 10
133.715413
 20
-139.020459
 30
0.0
 11
133.43252
 21
-138.998087
 31
0.0
  0
LINE
  8
0
 62
0
 10
133.43252
 20
-138.998087
 30
0.0
 11
101.759335
 21
-139.008047
 31
0.0
  0
LINE
  8
0
 62
0
 10
101.759335
 20
-139.008047
 30
0.0
 11
101.421245
 21
-139.027275
 31
0.0
  0
LINE
  8
0
 62
0
 10
101.421245
 20
-139.027275
 30
0.0
 11
101.087491
 21
-139.08456
 31
0.0
  0
LINE
  8
0
 62
0
 10
101.087491
 20
-139.08456
 30
0.0
 11
100.76235500000004
 21
-139.17921500000014
 31
0.0
  0
LINE
  8
0
 62
0
 10
100.762355
 20
-139.179215
 30
0.0
 11
100.45000600000004
 21
-139.3100240000001
 31
0.0
  0
LINE
  8
0
 62
0
 10
100.450006
 20
-139.310024
 30
0.0
 11
100.15445
 21
-139.47531
 31
0.0
  0
LINE
  8
0
 62
0
 10
100.15445
 20
-139.47531
 30
0.0
 11
99.87947700000011
 21
-139.67295400000015
 31
0.0
  0
LINE
  8
0
 62
0
 10
99.879477
 20
-139.672954
 30
0.0
 11
99.62861500000005
 21
-139.90042100000005
 31
0.0
  0
LINE
  8
0
 62
0
 10
99.628615
 20
-139.900421
 30
0.0
 11
99.40508000000007
 21
-140.15479300000007
 31
0.0
  0
LINE
  8
0
 62
0
 10
99.40508
 20
-140.154793
 30
0.0
 11
93.36367700000014
 21
-146.14013100000014
 31
0.0
  0
LINE
  8
0
 62
0
 10
93.363677
 20
-146.140131
 30
0.0
 11
93.05137099999993
 21
-146.47240799999994
 31
0.0
  0
LINE
  8
0
 62
0
 10
93.051371
 20
-146.472408
 30
0.0
 11
92.708626
 21
-146.773191
 31
0.0
  0
LINE
  8
0
 62
0
 10
92.708626
 20
-146.773191
 30
0.0
 11
92.33861799999998
 21
-147.03972099999996
 31
0.0
  0
LINE
  8
0
 62
0
 10
92.338618
 20
-147.039721
 30
0.0
 11
91.94475699999995
 21
-147.26954299999994
 31
0.0
  0
LINE
  8
0
 62
0
 10
91.944757
 20
-147.269543
 30
0.0
 11
91.53067399999992
 21
-147.4605389999998
 31
0.0
  0
LINE
  8
0
 62
0
 10
91.530674
 20
-147.460539
 30
0.0
 11
91.10018399999996
 21
-147.6109469999999
 31
0.0
  0
LINE
  8
0
 62
0
 10
91.100184
 20
-147.610947
 30
0.0
 11
90.65725500000002
 21
-147.71938300000008
 31
0.0
  0
LINE
  8
0
 62
0
 10
90.657255
 20
-147.719383
 30
0.0
 11
90.20596900000001
 21
-147.78484600000007
 31
0.0
  0
LINE
  8
0
 62
0
 10
90.205969
 20
-147.784846
 30
0.0
 11
89.750485
 21
-147.806733
 31
0.0
  0
LINE
  8
0
 62
0
 10
89.750485
 20
-147.806733
 30
0.0
 11
59.90002199999999
 21
-147.810045
 31
0.0
  0
LINE
  8
0
 62
0
 10
59.900022
 20
-147.810045
 30
0.0
 11
59.384258
 21
-147.789764
 31
0.0
  0
LINE
  8
0
 62
0
 10
59.384258
 20
-147.789764
 30
0.0
 11
58.871666999999995
 21
-147.72915600000002
 31
0.0
  0
LINE
  8
0
 62
0
 10
58.871667
 20
-147.729156
 30
0.0
 11
58.36540499999995
 21
-147.62855600000026
 31
0.0
  0
LINE
  8
0
 62
0
 10
58.365405
 20
-147.628556
 30
0.0
 11
57.868584999999975
 21
-147.4885820000001
 31
0.0
  0
LINE
  8
0
 62
0
 10
57.868585
 20
-147.488582
 30
0.0
 11
57.38426500000004
 21
-147.3100969999999
 31
0.0
  0
LINE
  8
0
 62
0
 10
57.384265
 20
-147.310097
 30
0.0
 11
56.91542599999995
 21
-147.09419800000012
 31
0.0
  0
LINE
  8
0
 62
0
 10
56.915426
 20
-147.094198
 30
0.0
 11
56.46495199999998
 21
-146.84221400000004
 31
0.0
  0
LINE
  8
0
 62
0
 10
56.464952
 20
-146.842214
 30
0.0
 11
56.035615999999976
 21
-146.55569600000004
 31
0.0
  0
LINE
  8
0
 62
0
 10
56.035616
 20
-146.555696
 30
0.0
 11
55.630059000000024
 21
-146.23640599999996
 31
0.0
  0
LINE
  8
0
 62
0
 10
55.630059
 20
-146.236406
 30
0.0
 11
55.25077699999996
 21
-145.88631000000007
 31
0.0
  0
LINE
  8
0
 62
0
 10
55.250777
 20
-145.88631
 30
0.0
 11
54.90010300000007
 21
-145.50756099999995
 31
0.0
  0
LINE
  8
0
 62
0
 10
54.900103
 20
-145.507561
 30
0.0
 11
54.580195999999965
 21
-145.10249100000001
 31
0.0
  0
LINE
  8
0
 62
0
 10
54.580196
 20
-145.102491
 30
0.0
 11
54.29302400000004
 21
-144.67359199999999
 31
0.0
  0
LINE
  8
0
 62
0
 10
54.293024
 20
-144.673592
 30
0.0
 11
54.04035499999976
 21
-144.22350200000014
 31
0.0
  0
LINE
  8
0
 62
0
 10
54.040355
 20
-144.223502
 30
0.0
 11
53.8237419999999
 21
-143.75499200000004
 31
0.0
  0
LINE
  8
0
 62
0
 10
53.823742
 20
-143.754992
 30
0.0
 11
53.64451900000014
 21
-143.27094499999995
 31
0.0
  0
LINE
  8
0
 62
0
 10
53.644519
 20
-143.270945
 30
0.0
 11
53.50378900000002
 21
-142.774339
 31
0.0
  0
LINE
  8
0
 62
0
 10
53.503789
 20
-142.774339
 30
0.0
 11
53.40241800000025
 21
-142.26822999999993
 31
0.0
  0
LINE
  8
0
 62
0
 10
53.402418
 20
-142.26823
 30
0.0
 11
53.34102900000014
 21
-141.75573299999996
 31
0.0
  0
LINE
  8
0
 62
0
 10
53.341029
 20
-141.755733
 30
0.0
 11
53.32
 21
-141.24
 31
0.0
  0
LINE
  8
0
 62
0
 10
53.32
 20
-141.24
 30
0.0
 11
53.31923
 21
-139.283672
 31
0.0
  0
LINE
  8
0
 62
0
 10
53.31923
 20
-139.283672
 30
0.0
 11
53.369970000000016
 21
-51.479999999999976
 31
0.0
  0
LINE
  8
0
 62
0
 10
53.36997
 20
-51.48
 30
0.0
 11
53.39021499999999
 21
-50.964235
 31
0.0
  0
LINE
  8
0
 62
0
 10
53.390215
 20
-50.964235
 30
0.0
 11
53.45082500000001
 21
-50.451643
 31
0.0
  0
LINE
  8
0
 62
0
 10
53.450825
 20
-50.451643
 30
0.0
 11
53.55142799999982
 21
-49.94537899999997
 31
0.0
  0
LINE
  8
0
 62
0
 10
53.551428
 20
-49.945379
 30
0.0
 11
53.69140299999992
 21
-49.44855799999998
 31
0.0
  0
LINE
  8
0
 62
0
 10
53.691403
 20
-49.448558
 30
0.0
 11
53.869890999999804
 21
-48.96423799999993
 31
0.0
  0
LINE
  8
0
 62
0
 10
53.869891
 20
-48.964238
 30
0.0
 11
54.08579099999988
 21
-48.495397999999945
 31
0.0
  0
LINE
  8
0
 62
0
 10
54.085791
 20
-48.495398
 30
0.0
 11
54.337776999999996
 21
-48.044924
 31
0.0
  0
LINE
  8
0
 62
0
 10
54.337777
 20
-48.044924
 30
0.0
 11
54.62429799999977
 21
-47.615587999999846
 31
0.0
  0
LINE
  8
0
 62
0
 10
54.624298
 20
-47.615588
 30
0.0
 11
54.94358899999982
 21
-47.210029999999854
 31
0.0
  0
LINE
  8
0
 62
0
 10
54.943589
 20
-47.21003
 30
0.0
 11
55.29368799999989
 21
-46.83074799999989
 31
0.0
  0
LINE
  8
0
 62
0
 10
55.293688
 20
-46.830748
 30
0.0
 11
55.672437999999985
 21
-46.480074999999985
 31
0.0
  0
LINE
  8
0
 62
0
 10
55.672438
 20
-46.480075
 30
0.0
 11
56.077509999999954
 21
-46.16016799999994
 31
0.0
  0
LINE
  8
0
 62
0
 10
56.07751
 20
-46.160168
 30
0.0
 11
56.50641199999999
 21
-45.872995999999986
 31
0.0
  0
LINE
  8
0
 62
0
 10
56.506412
 20
-45.872996
 30
0.0
 11
56.95650300000007
 21
-45.62032700000013
 31
0.0
  0
LINE
  8
0
 62
0
 10
56.956503
 20
-45.620327
 30
0.0
 11
57.42501499999997
 21
-45.403714999999934
 31
0.0
  0
LINE
  8
0
 62
0
 10
57.425015
 20
-45.403715
 30
0.0
 11
57.90906299999991
 21
-45.22449299999975
 31
0.0
  0
LINE
  8
0
 62
0
 10
57.909063
 20
-45.224493
 30
0.0
 11
58.40567099999999
 21
-45.08376399999997
 31
0.0
  0
LINE
  8
0
 62
0
 10
58.405671
 20
-45.083764
 30
0.0
 11
58.91178199999998
 21
-44.98239299999989
 31
0.0
  0
LINE
  8
0
 62
0
 10
58.911782
 20
-44.982393
 30
0.0
 11
59.42428099999998
 21
-44.9210059999998
 31
0.0
  0
LINE
  8
0
 62
0
 10
59.424281
 20
-44.921006
 30
0.0
 11
59.940015
 21
-44.899978000000004
 31
0.0
  0
LINE
  8
0
 62
0
 10
59.940015
 20
-44.899978
 30
0.0
 11
87.599183
 21
-44.906455
 31
0.0
  0
LINE
  8
0
 62
0
 10
87.599183
 20
-44.906455
 30
0.0
 11
88.205628
 21
-44.88687399999999
 31
0.0
  0
LINE
  8
0
 62
0
 10
88.205628
 20
-44.886874
 30
0.0
 11
88.809546
 21
-44.82820800000002
 31
0.0
  0
LINE
  8
0
 62
0
 10
88.809546
 20
-44.828208
 30
0.0
 11
89.40842000000005
 21
-44.73070200000023
 31
0.0
  0
LINE
  8
0
 62
0
 10
89.40842
 20
-44.730702
 30
0.0
 11
89.99975699999999
 21
-44.59476199999995
 31
0.0
  0
LINE
  8
0
 62
0
 10
89.999757
 20
-44.594762
 30
0.0
 11
90.58109100000001
 21
-44.42095400000005
 31
0.0
  0
LINE
  8
0
 62
0
 10
90.581091
 20
-44.420954
 30
0.0
 11
91.15000100000005
 21
-44.21000400000012
 31
0.0
  0
LINE
  8
0
 62
0
 10
91.150001
 20
-44.210004
 30
0.0
 11
91.704116
 21
-43.962789999999984
 31
0.0
  0
LINE
  8
0
 62
0
 10
91.704116
 20
-43.96279
 30
0.0
 11
92.24112799999992
 21
-43.68034099999985
 31
0.0
  0
LINE
  8
0
 62
0
 10
92.241128
 20
-43.680341
 30
0.0
 11
92.758798
 21
-43.363835
 31
0.0
  0
LINE
  8
0
 62
0
 10
92.758798
 20
-43.363835
 30
0.0
 11
93.25497099999993
 21
-43.0145909999999
 31
0.0
  0
LINE
  8
0
 62
0
 10
93.254971
 20
-43.014591
 30
0.0
 11
93.72757799999988
 21
-42.63406299999986
 31
0.0
  0
LINE
  8
0
 62
0
 10
93.727578
 20
-42.634063
 30
0.0
 11
94.17464999999984
 21
-42.22383799999984
 31
0.0
  0
LINE
  8
0
 62
0
 10
94.17465
 20
-42.223838
 30
0.0
 11
98.50127900000226
 21
-37.88065400000225
 31
0.0
  0
LINE
  8
0
 62
0
 10
98.501279
 20
-37.880654
 30
0.0
 11
98.83623099999993
 21
-37.55500399999992
 31
0.0
  0
LINE
  8
0
 62
0
 10
98.836231
 20
-37.555004
 30
0.0
 11
99.19931700000012
 21
-37.261050000000154
 31
0.0
  0
LINE
  8
0
 62
0
 10
99.199317
 20
-37.26105
 30
0.0
 11
99.58754799999991
 21
-37.00120799999988
 31
0.0
  0
LINE
  8
0
 62
0
 10
99.587548
 20
-37.001208
 30
0.0
 11
99.99772700000005
 21
-36.777615000000104
 31
0.0
  0
LINE
  8
0
 62
0
 10
99.997727
 20
-36.777615
 30
0.0
 11
100.42647999999994
 21
-36.59211199999988
 31
0.0
  0
LINE
  8
0
 62
0
 10
100.42648
 20
-36.592112
 30
0.0
 11
100.870279
 21
-36.446223999999994
 31
0.0
  0
LINE
  8
0
 62
0
 10
100.870279
 20
-36.446224
 30
0.0
 11
101.32547300000006
 21
-36.34115300000023
 31
0.0
  0
LINE
  8
0
 62
0
 10
101.325473
 20
-36.341153
 30
0.0
 11
101.78831399999999
 21
-36.2777619999999
 31
0.0
  0
LINE
  8
0
 62
0
 10
101.788314
 20
-36.277762
 30
0.0
 11
102.254996
 21
-36.256572999999996
 31
0.0
  0
LINE
  8
0
 62
0
 10
102.254996
 20
-36.256573
 30
0.0
 11
161.565975
 21
-36.261089
 31
0.0
  0
LINE
  8
0
 62
0
 10
161.565975
 20
-36.261089
 30
0.0
 11
161.86635
 21
-36.238392
 31
0.0
  0
LINE
  8
0
 62
0
 10
161.86635
 20
-36.238392
 30
0.0
 11
162.159911
 21
-36.17085500000003
 31
0.0
  0
LINE
  8
0
 62
0
 10
162.159911
 20
-36.170855
 30
0.0
 11
162.43999900000003
 21
-36.05999400000005
 31
0.0
  0
LINE
  8
0
 62
0
 10
162.439999
 20
-36.059994
 30
0.0
 11
162.7002599999999
 21
-35.90832399999988
 31
0.0
  0
LINE
  8
0
 62
0
 10
162.70026
 20
-35.908324
 30
0.0
 11
162.93479000000002
 21
-35.71928600000004
 31
0.0
  0
LINE
  8
0
 62
0
 10
162.93479
 20
-35.719286
 30
0.0
 11
163.13826800000007
 21
-35.49716900000006
 31
0.0
  0
LINE
  8
0
 62
0
 10
163.138268
 20
-35.497169
 30
0.0
 11
164.39173199999937
 21
-34.26283099999938
 31
0.0
  0
LINE
  8
0
 62
0
 10
164.391732
 20
-34.262831
 30
0.0
 11
164.59519899999995
 21
-34.04070199999996
 31
0.0
  0
LINE
  8
0
 62
0
 10
164.595199
 20
-34.040702
 30
0.0
 11
164.82973099999995
 21
-33.85166299999994
 31
0.0
  0
LINE
  8
0
 62
0
 10
164.829731
 20
-33.851663
 30
0.0
 11
165.08999399999993
 21
-33.69999199999993
 31
0.0
  0
LINE
  8
0
 62
0
 10
165.089994
 20
-33.699992
 30
0.0
 11
165.370084
 21
-33.58912999999996
 31
0.0
  0
LINE
  8
0
 62
0
 10
165.370084
 20
-33.58913
 30
0.0
 11
165.663648
 21
-33.52159300000004
 31
0.0
  0
LINE
  8
0
 62
0
 10
165.663648
 20
-33.521593
 30
0.0
 11
165.964025
 21
-33.498911000000014
 31
0.0
  0
CIRCLE
  8
0
 62
0
 10
183.54
 20
-139.86
 30
0.0
 40
1.1
  0
CIRCLE
  8
0
 62
0
 10
133.74
 20
-90.77
 30
0.0
 40
1.1
  0
CIRCLE
  8
0
 62
0
 10
76.59
 20
-127.61
 30
0.0
 40
1.1
  0
CIRCLE
  8
0
 62
0
 10
175.23
 20
-41.31
 30
0.0
 40
1.1
  0
CIRCLE
  8
0
 62
0
 10
76.58
 20
-63.78
 30
0.0
 40
1.1
  0
ENDBLK
  0
ENDSEC
  0
SECTION
  2
ENTITIES
  0
INSERT
  2
FACEFEAT
  8
0
 62
0
 10
0.0
 20
0.0
 30
0.0
  0
ENDSEC
  0
EOF
